<?xml version="1.0" encoding="utf-8"?>
<!-- Generator: Adobe Illustrator 21.0.2, SVG Export Plug-In . SVG Version: 6.00 Build 0)  -->
<svg version="1.1" id="btn" xmlns="http://www.w3.org/2000/svg" xmlns:xlink="http://www.w3.org/1999/xlink" x="0px" y="0px"
	 viewBox="0 0 288.5 278" style="enable-background:new 0 0 288.5 278;" xml:space="preserve">
<style type="text/css">
	.st0{fill:#FFFFFF;}
	.st1{clip-path:url(#SVGID_2_);}
	.st2{clip-path:url(#SVGID_4_);}
	.st3{clip-path:url(#SVGID_6_);}
</style>
<circle class="st0" cx="147.7" cy="143.8" r="111.9"/>
<title>btn_register</title>
<g>
	<defs>
		<rect id="SVGID_1_" x="22.9" y="19.4" width="247.3" height="247.6"/>
	</defs>
	<clipPath id="SVGID_2_">
		<use xlink:href="#SVGID_1_"  style="overflow:visible;"/>
	</clipPath>
	<g class="st1">
		<path d="M33.2,118.2l2.7,0.3l-1.7,13.3l7.6,1l1.6-12.4l2.7,0.3l-1.6,12.4l8.2,1.1l1.8-13.4l2.7,0.3l-2.2,16.6L31,134.6L33.2,118.2
			z"/>
		<path d="M37.1,105l22.9-4.2v-0.1l-18-7.5l1.2-2.8l22.2,9.2l-1.3,3.2l-22.6,4.2v0.1l17.8,7.4l-1.2,2.8l-22.2-9.2L37.1,105z"/>
	</g>
</g>
<path d="M71.4,90.4L47,82.9l2-2.8L69.9,87H70L57.4,69l2-2.7l14.2,21.2L71.4,90.4z"/>
<path d="M66.2,59.7l17,17L80.9,79l-17-17L66.2,59.7z"/>
<path d="M81.5,47.3L103,61.7l-2.9,2l-6.3-4.5l-8.4,5.8l1.9,7.5l-2.7,1.9l-6-25.1L81.5,47.3z M91.4,57.6l-9.7-6.9h-0.1l3,11.5
	L91.4,57.6z"/>
<g>
	<defs>
		<rect id="SVGID_3_" x="22.9" y="19.4" width="247.3" height="247.6"/>
	</defs>
	<clipPath id="SVGID_4_">
		<use xlink:href="#SVGID_3_"  style="overflow:visible;"/>
	</clipPath>
	<g class="st2">
		<path d="M117.4,31c1.9-0.7,4-0.6,5.8,0.3c1.7,1,2.8,2.6,3.2,4.5c0.6,1.8,0.5,3.8-0.3,5.6c-1.1,1.7-2.8,2.9-4.8,3.3l-7.1,2l2.7,9.5
			l-3.1,0.9l-6.6-23.1L117.4,31z M119.5,42.4c1.4-0.3,2.6-1,3.5-2.2c0.6-1.1,0.7-2.4,0.3-3.5c-0.3-1.2-1-2.2-2.1-2.8
			c-1.3-0.5-2.8-0.5-4.2,0l-6,1.7l2.4,8.5L119.5,42.4z"/>
		<path d="M150.8,27.2l0.1,2.7l-13.4,0.5l0.3,7.6l12.5-0.4l0.1,2.7l-12.5,0.4l0.3,8.3l13.5-0.5l0.1,2.7L135,51.8l-0.8-24L150.8,27.2
			z"/>
		<path d="M171.7,30.2c1.9,0.3,3.7,1.3,4.9,2.8c1.1,1.4,1.4,3.2,1,4.9c-0.2,1.3-0.9,2.6-1.8,3.6c-1,1-2.3,1.5-3.6,1.5v0.1
			c0.6,0.2,1.1,0.6,1.5,1c0.4,0.4,0.6,0.8,0.8,1.3c0.2,0.5,0.3,1,0.3,1.5c0,0.6,0,1.1-0.1,1.7c-0.1,0.6-0.2,1.2-0.3,1.8
			c-0.1,0.6-0.2,1.2-0.2,1.8c0,0.6,0,1.1,0,1.7c0.1,0.5,0.2,1,0.5,1.5l-3.5-0.7c-0.2-0.3-0.3-0.7-0.2-1.1c0-0.5,0.1-1,0.1-1.4
			c0.1-0.5,0.2-1.1,0.3-1.7c0.1-0.6,0.2-1.2,0.2-1.8c0-0.6,0-1.2,0-1.7c0-0.5-0.1-1-0.3-1.5c-0.2-0.5-0.5-0.9-0.9-1.2
			c-0.5-0.4-1.1-0.6-1.8-0.7l-7.6-1.6l-2.1,10.1l-3.1-0.7l4.9-23.5L171.7,30.2z M170.1,41c0.6,0,1.3-0.1,1.9-0.3
			c0.6-0.2,1.1-0.6,1.5-1c0.5-0.6,0.8-1.3,0.9-2c0.3-1,0.1-2.2-0.4-3.1c-0.7-1-1.8-1.7-3-1.8l-7.8-1.6l-1.7,8.2l6.5,1.3
			C168.7,40.9,169.4,41,170.1,41L170.1,41z"/>
	</g>
</g>
<path d="M200.5,40.9l-10.9,21.5l-2.9-1.5l10.9-21.5L200.5,40.9z"/>
<path d="M212.1,47.7l-2.1,23.2h0.1l12-15.3l2.4,1.9l-14.8,19l-2.8-2.2l2-22.9h-0.1L197,66.4l-2.4-1.9l14.8-18.9L212.1,47.7z"/>
<path d="M237.2,76.9c-0.1-1.5-0.6-2.9-1.6-4c-0.4-0.5-0.9-1-1.4-1.4c-0.5-0.4-1-0.8-1.6-1c-0.6-0.2-1.2-0.3-1.7-0.2
	c-0.7,0.1-1.3,0.4-1.8,0.8c-0.5,0.4-0.9,1-1,1.6c-0.1,0.7,0,1.4,0.2,2.1c0.2,0.8,0.6,1.6,0.9,2.4c0.4,0.8,0.8,1.7,1.2,2.6
	c0.4,0.9,0.8,1.8,1.1,2.7c0.3,0.9,0.5,1.8,0.5,2.7c0,0.9-0.1,1.8-0.5,2.6c-1,2-2.9,3.3-5.1,3.7c-1.1,0.1-2.1,0-3.1-0.4
	c-1-0.4-2-0.9-2.8-1.6c-0.9-0.7-1.6-1.5-2.3-2.4c-0.8-1-1.4-2.1-1.9-3.3c-0.5-1.1-0.7-2.3-0.7-3.4c0-1.1,0.3-2.3,0.8-3.3
	c0.6-1.2,1.5-2.2,2.5-2.9l1.9,2.4c-0.8,0.6-1.4,1.3-1.8,2.1c-0.3,0.7-0.5,1.5-0.5,2.3c0,0.8,0.2,1.6,0.5,2.4
	c0.3,0.8,0.8,1.6,1.3,2.3c0.4,0.6,0.9,1.1,1.5,1.6c0.5,0.5,1.1,0.9,1.8,1.1c1.3,0.6,2.9,0.4,4-0.6c0.6-0.4,1-1,1.2-1.8
	c0.1-0.7,0.1-1.5-0.1-2.2c-0.2-0.8-0.5-1.7-0.9-2.4l-1.2-2.6c-0.4-0.9-0.8-1.8-1.1-2.7c-0.3-0.8-0.5-1.7-0.6-2.6
	c-0.1-0.8,0-1.7,0.4-2.5c0.4-0.9,1-1.6,1.8-2.2c0.9-0.7,1.9-1.1,2.9-1.3c1-0.2,2-0.1,2.9,0.2c1,0.3,1.9,0.8,2.7,1.4
	c0.9,0.7,1.6,1.4,2.3,2.3c0.7,0.9,1.3,1.9,1.8,3c0.4,1,0.6,2,0.6,3c0,1-0.3,2-0.7,2.9c-0.6,1-1.3,2-2.2,2.7l-1.9-2.4
	C236.6,79.7,237.2,78.4,237.2,76.9z"/>
<path d="M251.3,102.8c0.3-1.5,0.1-3.1-0.5-4.5c-0.5-1.2-1.2-2.2-2.2-3.1c-0.9-0.7-1.9-1.2-3-1.5c-1.1-0.3-2.3-0.3-3.4-0.1
	c-1.2,0.2-2.4,0.5-3.5,1c-1.2,0.5-2.3,1.2-3.4,2c-0.9,0.7-1.7,1.6-2.4,2.6c-0.6,1-0.9,2.1-1,3.2c-0.1,1.3,0.2,2.6,0.7,3.7
	c0.4,0.9,0.9,1.7,1.6,2.4c0.6,0.6,1.4,1.1,2.2,1.4c0.8,0.3,1.7,0.5,2.6,0.4c0.9,0,1.9-0.2,2.8-0.5l1.3,2.9c-2.5,0.9-5.3,0.9-7.7-0.1
	c-2.4-1.1-4.3-3.2-5.2-5.7c-0.7-1.5-1-3.2-1-4.9c0-1.5,0.3-2.9,1-4.3c0.7-1.3,1.7-2.5,2.8-3.5c1.3-1.1,2.7-1.9,4.2-2.6
	c1.5-0.7,3.2-1.1,4.8-1.3c1.5-0.2,3.1,0,4.6,0.4c1.4,0.4,2.8,1.2,3.9,2.2c1.2,1.1,2.2,2.5,2.8,4.1c0.5,1.1,0.8,2.3,0.9,3.5
	c0.1,1.1,0.1,2.2-0.2,3.3c-0.3,1.1-0.7,2.1-1.4,3c-0.7,1-1.6,1.8-2.7,2.4l-1.3-2.9C250,105.7,250.9,104.3,251.3,102.8z"/>
<g>
	<defs>
		<rect id="SVGID_5_" x="22.9" y="19.4" width="247.3" height="247.6"/>
	</defs>
	<clipPath id="SVGID_6_">
		<use xlink:href="#SVGID_5_"  style="overflow:visible;"/>
	</clipPath>
	<g class="st3">
		<path d="M261.2,127.6c0.4,1.9,0.1,3.9-0.8,5.6c-0.9,1.5-2.5,2.4-4.2,2.6c-1.3,0.2-2.7,0.1-3.9-0.4c-1.2-0.5-2.2-1.5-2.7-2.8h-0.1
			c0,0.6-0.1,1.2-0.4,1.8c-0.2,0.5-0.6,0.9-0.9,1.2c-0.4,0.3-0.9,0.6-1.4,0.8c-0.5,0.2-1.1,0.4-1.6,0.6c-0.6,0.1-1.2,0.3-1.8,0.4
			c-0.6,0.1-1.2,0.3-1.7,0.4c-0.5,0.2-1.1,0.4-1.6,0.6c-0.5,0.2-0.9,0.6-1.3,1l-0.6-3.5c0.2-0.3,0.6-0.5,0.9-0.6
			c0.5-0.2,0.9-0.3,1.4-0.4l1.7-0.3c0.6-0.1,1.2-0.3,1.7-0.5c0.6-0.2,1.1-0.4,1.6-0.6c0.5-0.2,0.9-0.5,1.3-0.9
			c0.3-0.4,0.6-0.8,0.8-1.3c0.2-0.6,0.2-1.3,0.1-1.9l-1.2-7.7l-10.1,1.6l-0.5-3.2l23.8-3.8L261.2,127.6z M250.5,130
			c0.2,0.6,0.5,1.2,0.9,1.6c0.4,0.5,0.9,0.8,1.5,1c0.7,0.2,1.5,0.3,2.2,0.1c1.1-0.1,2.1-0.6,2.8-1.5c0.7-1,0.9-2.2,0.6-3.4l-1.3-7.9
			l-8.2,1.3l1,6.6C250.1,128.6,250.3,129.3,250.5,130z"/>
		<path d="M262.2,146.7l-24-0.3v-3.2l24,0.3V146.7z"/>
		<path d="M236.7,168.6c-1.2-1.9-1.5-4.4-0.9-7.3c0.4-2.6,1.7-5,3.6-6.7c1.8-1.4,4.3-1.8,7.4-1.1l15,3.1l-0.6,3.1l-15-3.1
			c-1.7-0.5-3.6-0.2-5.1,0.7c-1.4,1.1-2.4,2.7-2.6,4.5c-0.5,1.7-0.2,3.4,0.7,4.9c1.1,1.4,2.7,2.3,4.5,2.6l15,3.1l-0.6,3.1l-15-3.1
			C240,171.8,237.9,170.6,236.7,168.6z"/>
	</g>
</g>
<path d="M249.7,196.1c-0.7,1.8-2.1,3.3-3.8,4.1c-1.6,0.7-3.5,0.6-5-0.2c-1.2-0.6-2.3-1.4-3-2.5c-0.7-1.1-1-2.5-0.7-3.8h-0.1
	c-0.4,0.5-0.8,0.9-1.3,1.2c-0.5,0.3-1,0.4-1.5,0.5c-0.5,0-1.1,0-1.6-0.1c-0.6-0.1-1.1-0.3-1.6-0.5c-0.5-0.2-1.1-0.4-1.7-0.7
	c-0.6-0.2-1.1-0.4-1.7-0.6c-0.5-0.2-1.1-0.3-1.7-0.4c-0.5-0.1-1.1,0-1.6,0.1l1.5-3.2c0.4-0.1,0.7-0.1,1.1,0c0.5,0.1,0.9,0.3,1.4,0.5
	l1.6,0.7c0.6,0.2,1.1,0.4,1.7,0.6c0.6,0.2,1.1,0.3,1.6,0.4c0.5,0.1,1,0.1,1.5,0c0.5-0.1,0.9-0.3,1.3-0.6c0.5-0.4,0.9-1,1.1-1.6
	l3.3-7.1l-9.3-4.4l1.4-2.9l21.7,10.3L249.7,196.1z M239.5,192c-0.2,0.6-0.2,1.2-0.2,1.9c0.1,0.6,0.3,1.2,0.7,1.7
	c0.5,0.6,1.1,1,1.7,1.3c1,0.5,2.1,0.6,3.1,0.4c1.1-0.4,2-1.3,2.4-2.5l3.4-7.2l-7.6-3.6l-2.9,6C240,190.6,239.7,191.3,239.5,192z"/>
<path d="M230.1,224.1l-2.1-1.7l8.5-10.4l-5.9-4.9l-7.9,9.7l-2.1-1.7l7.9-9.7l-6.4-5.3l-8.6,10.4l-2.1-1.7L222,196l18.6,15.3
	L230.1,224.1z"/>
<path d="M220.9,232.1l-2.4-2.8c-0.4-0.5-0.8-1-1.1-1.6c-0.3-0.5-0.4-1.1-0.5-1.6c-0.1-0.5,0-1.1,0.2-1.6c0.2-0.5,0.5-1,1-1.4
	l1.1,1.3c-0.3,0.2-0.5,0.5-0.5,0.8c-0.1,0.3-0.1,0.7,0,1c0.1,0.4,0.2,0.7,0.4,1c0.2,0.3,0.4,0.6,0.7,0.9l1.5-1.3l2.4,2.8
	L220.9,232.1z"/>
<path d="M214.6,234.2l1.4,2.3l-16.3,10.1l-1.4-2.3l6.8-4.2L193.8,222l2.7-1.7l11.3,18.1L214.6,234.2z"/>
<path d="M182.5,231.8l-1.5-3.4l3.4-1.5l1.5,3.4L182.5,231.8z M184.5,233.6l1.4-0.6l4.9,9.3l2.9,6.8l-2.9,1.3l-2.9-6.8L184.5,233.6z"
	/>
</svg>
